{"accessors":[{"name":"object_jin1_1_0_positions","componentType":5126,"count":62273,"min":[-43.22779846191406,-0.6438000202178955,-10.598999977111816],"max":[34.80459976196289,10.569299697875977,10.758099555969238],"type":"VEC3","bufferView":0,"byteOffset":0},{"name":"object_jin1_1_0_normals","componentType":5126,"count":62273,"min":[-1,-1,-1],"max":[1,1,1],"type":"VEC3","bufferView":1,"byteOffset":0},{"name":"object_jin1_1_0_texcoords","componentType":5126,"count":62273,"min":[0,0.001500000013038516],"max":[0.9984999895095825,1],"type":"VEC2","bufferView":2,"byteOffset":0},{"name":"object_jin1_1_0_indices","componentType":5123,"count":232998,"min":[0],"max":[62272],"type":"SCALAR","bufferView":3,"byteOffset":0}],"asset":{"generator":"obj2gltf","version":"2.0"},"buffers":[{"name":"box","byteLength":2458732,"uri":"data:application/octet-stream;base64,"}],"bufferViews":[{"name":"bufferView_0","buffer":0,"byteLength":747276,"byteOffset":0,"byteStride":12,"target":34962},{"name":"bufferView_1","buffer":0,"byteLength":747276,"byteOffset":747276,"byteStride":12,"target":34962},{"name":"bufferView_2","buffer":0,"byteLength":498184,"byteOffset":1494552,"byteStride":8,"target":34962},{"name":"bufferView_3","buffer":0,"byteLength":465996,"byteOffset":1992736,"target":34963}],"materials":[{"name":"default","pbrMetallicRoughness":{"baseColorFactor":[0.5,0.5,0.5,1],"metallicFactor":0,"roughnessFactor":1},"emissiveFactor":[0,0,0],"alphaMode":"OPAQUE","doubleSided":false}],"meshes":[{"name":"object_jin1_1","primitives":[{"attributes":{"POSITION":0,"NORMAL":1,"TEXCOORD_0":2},"indices":3,"material":0,"mode":4}]}],"nodes":[{"name":"object_jin1","mesh":0}],"scene":0,"scenes":[{"nodes":[0]}]}