{"accessors":[{"name":"object_jin1_1_0_positions","componentType":5126,"count":531,"min":[4.530300140380859,-0.9118000268936157,-18.03260040283203],"max":[7.388199806213379,1.9460999965667725,18.067800521850586],"type":"VEC3","bufferView":0,"byteOffset":0},{"name":"object_jin1_1_0_normals","componentType":5126,"count":531,"min":[-1,-1,-1],"max":[1,1,1],"type":"VEC3","bufferView":1,"byteOffset":0},{"name":"object_jin1_1_0_texcoords","componentType":5126,"count":531,"min":[0,0.0032999999821186066],"max":[0.4799000024795532,1],"type":"VEC2","bufferView":2,"byteOffset":0},{"name":"object_jin1_1_0_indices","componentType":5123,"count":1920,"min":[0],"max":[530],"type":"SCALAR","bufferView":3,"byteOffset":0}],"asset":{"generator":"obj2gltf","version":"2.0"},"buffers":[{"name":"link","byteLength":20832,"uri":"data:application/octet-stream;base64,"}],"bufferViews":[{"name":"bufferView_0","buffer":0,"byteLength":6372,"byteOffset":0,"byteStride":12,"target":34962},{"name":"bufferView_1","buffer":0,"byteLength":6372,"byteOffset":6372,"byteStride":12,"target":34962},{"name":"bufferView_2","buffer":0,"byteLength":4248,"byteOffset":12744,"byteStride":8,"target":34962},{"name":"bufferView_3","buffer":0,"byteLength":3840,"byteOffset":16992,"target":34963}],"materials":[{"name":"default","pbrMetallicRoughness":{"baseColorFactor":[0.5,0.5,0.5,1],"metallicFactor":0,"roughnessFactor":1},"emissiveFactor":[0,0,0],"alphaMode":"OPAQUE","doubleSided":false}],"meshes":[{"name":"object_jin1_1","primitives":[{"attributes":{"POSITION":0,"NORMAL":1,"TEXCOORD_0":2},"indices":3,"material":0,"mode":4}]}],"nodes":[{"name":"object_jin1","mesh":0}],"scene":0,"scenes":[{"nodes":[0]}]}