{"accessors":[{"name":"object_jin1_1_0_positions","componentType":5126,"count":4647,"min":[-35.94110107421875,-0.8072999715805054,-10.321100234985352],"max":[34.777099609375,15.238499641418457,10.127400398254395],"type":"VEC3","bufferView":0,"byteOffset":0},{"name":"object_jin1_1_0_normals","componentType":5126,"count":4647,"min":[-1,-1,-1],"max":[1,1,1],"type":"VEC3","bufferView":1,"byteOffset":0},{"name":"object_jin1_1_0_texcoords","componentType":5126,"count":4647,"min":[0,0],"max":[1,1],"type":"VEC2","bufferView":2,"byteOffset":0},{"name":"object_jin1_1_0_indices","componentType":5123,"count":17142,"min":[0],"max":[4646],"type":"SCALAR","bufferView":3,"byteOffset":0}],"asset":{"generator":"obj2gltf","version":"2.0"},"buffers":[{"name":"pot","byteLength":182988,"uri":"data:application/octet-stream;base64,"}],"bufferViews":[{"name":"bufferView_0","buffer":0,"byteLength":55764,"byteOffset":0,"byteStride":12,"target":34962},{"name":"bufferView_1","buffer":0,"byteLength":55764,"byteOffset":55764,"byteStride":12,"target":34962},{"name":"bufferView_2","buffer":0,"byteLength":37176,"byteOffset":111528,"byteStride":8,"target":34962},{"name":"bufferView_3","buffer":0,"byteLength":34284,"byteOffset":148704,"target":34963}],"materials":[{"name":"default","pbrMetallicRoughness":{"baseColorFactor":[0.5,0.5,0.5,1],"metallicFactor":0,"roughnessFactor":1},"emissiveFactor":[0,0,0],"alphaMode":"OPAQUE","doubleSided":false}],"meshes":[{"name":"object_jin1_1","primitives":[{"attributes":{"POSITION":0,"NORMAL":1,"TEXCOORD_0":2},"indices":3,"material":0,"mode":4}]}],"nodes":[{"name":"object_jin1","mesh":0}],"scene":0,"scenes":[{"nodes":[0]}]}